<?xml version="1.0" encoding="utf-8"?>
<!-- Generator: Adobe Illustrator 16.0.0, SVG Export Plug-In . SVG Version: 6.00 Build 0)  -->
<!DOCTYPE svg PUBLIC "-//W3C//DTD SVG 1.1//EN" "http://www.w3.org/Graphics/SVG/1.1/DTD/svg11.dtd">
<svg version="1.1" id="Layer_1" xmlns="http://www.w3.org/2000/svg" xmlns:xlink="http://www.w3.org/1999/xlink" x="0px" y="0px"
	 width="250.936px" height="63.982px" viewBox="0 0 250.936 63.982" enable-background="new 0 0 250.936 63.982"
	 xml:space="preserve">
<text transform="matrix(0.96 0 0 1 -33.2898 16.6814)" display="none" fill="#3A1F15" enable-background="new    " font-family="'Jalnan'" font-size="63.4006">PET</text>
<text transform="matrix(0.96 0 0 1 96.4714 16.6814)" display="none" fill="#FBB978" enable-background="new    " font-family="'Jalnan'" font-size="63.4006">FAMILY</text>
<text transform="matrix(0.96 0 0 1 -31.8372 54.1667)" display="none" fill="#939393" enable-background="new    " font-family="'Jalnan'" font-size="30">펫 패밀리</text>
<path fill="#FFFFFF" d="M123.531,13.615c-0.121,1.925-0.109,3.712-0.196,5.482c-0.122,2.487,0.111,4.99,0.129,7.488
	c0.029,3.838,0.004,7.679,0.005,11.518c0,0.751-0.245,1.122-1.112,1.104c-2.472-0.046-4.943-0.021-7.415,0.022
	c-0.693,0.012-0.944-0.182-0.942-0.912c0.021-11.606,0.022-23.21,0.002-34.816c-0.001-0.8,0.304-0.974,1.036-0.97
	c4.19,0.028,8.38,0.052,12.568-0.011c1.328-0.022,1.652,0.878,1.869,1.773c0.618,2.554,1.347,5.083,1.953,7.633
	c0.554,2.324,1.229,4.622,1.696,6.97c0.288,1.441,0.906,2.807,1.029,4.292c0.019,0.22,0.1,0.421,0.359,0.429
	c0.308,0.011,0.443-0.22,0.507-0.468c0.38-1.475,0.738-2.953,1.116-4.428c0.447-1.74,0.92-3.474,1.357-5.216
	c0.419-1.662,0.791-3.337,1.218-4.998c0.449-1.745,0.97-3.471,1.393-5.223c0.155-0.651,0.518-0.748,1.078-0.746
	c4.272,0.009,8.546,0.024,12.817-0.009c0.949-0.007,1.232,0.366,1.232,1.268c-0.015,11.438-0.014,22.875,0.015,34.313
	c0.002,0.91-0.356,1.133-1.189,1.119c-2.347-0.039-4.692-0.05-7.038,0.006c-0.966,0.021-1.292-0.254-1.289-1.268
	c0.03-7.33,0-14.662-0.012-21.993c0-0.21,0.022-0.421,0-0.628c-0.026-0.266,0.134-0.66-0.28-0.719
	c-0.353-0.05-0.474,0.264-0.54,0.569c-0.263,1.173-0.811,2.294-1.03,3.436c-0.33,1.703-0.763,3.394-1.011,5.126
	c-0.235,1.631-0.944,3.207-1.347,4.84c-0.59,2.407-1.223,4.807-1.843,7.207c-0.217,0.84-0.424,1.685-0.682,2.515
	c-0.186,0.595-0.527,0.938-1.272,0.918c-2.219-0.06-4.438-0.037-6.661-0.022c-0.579,0.005-0.819-0.127-0.97-0.793
	c-0.529-2.366-1.245-4.694-1.822-7.045c-0.579-2.364-1.251-4.71-1.743-7.104c-0.439-2.128-1.122-4.215-1.604-6.349
	c-0.262-1.157-0.575-2.305-0.841-3.464C124.006,14.173,123.948,13.913,123.531,13.615z"/>
<path fill="#FFFFFF" d="M40.294,20.865c0-5.657,0.022-11.313-0.021-16.971c-0.007-1.014,0.234-1.369,1.317-1.365
	c9.302,0.045,18.604,0.046,27.905,0.004c1.049-0.004,1.275,0.337,1.241,1.292c-0.064,1.8-0.07,3.605,0.007,5.404
	c0.043,1.011-0.197,1.355-1.297,1.343c-5.531-0.063-11.063-0.008-16.593-0.049c-0.925-0.007-1.276,0.232-1.215,1.183
	c0.069,1.086,0.067,2.182-0.003,3.267c-0.063,0.992,0.317,1.314,1.293,1.31c5.111-0.032,10.224,0.022,15.334-0.048
	c0.905-0.013,1.038,0.237,1.018,1.017c-0.049,1.757-0.058,3.521-0.009,5.277c0.021,0.819-0.145,1.158-1.076,1.196
	c-5.109,0.209-10.219,0.105-15.327,0.036c-0.971-0.013-1.262,0.207-1.228,1.147c0.056,1.548,0.109,3.106-0.011,4.646
	c-0.094,1.201,0.396,1.353,1.429,1.345c5.572-0.049,11.146-0.004,16.718-0.052c1.107-0.01,1.563,0.228,1.491,1.454
	c-0.115,1.964-0.052,3.938-0.016,5.906c0.015,0.723-0.144,1.035-0.964,1.033c-9.679-0.028-19.356-0.03-29.036,0
	c-0.938,0.002-0.967-0.435-0.964-1.155c0.021-5.741,0.011-11.479,0.011-17.22C40.297,20.865,40.296,20.865,40.294,20.865z"/>
<path fill="#FFFFFF" d="M3.378,20.849c0-5.654,0.021-11.309-0.021-16.959C3.351,2.985,3.525,2.642,4.507,2.65
	c6.324,0.05,12.647-0.004,18.97,0.066c3.13,0.034,6.089,0.789,8.276,3.224c2.845,3.162,3.238,6.952,2.386,10.929
	c-0.417,1.946-1.075,3.812-2.567,5.298c-2.369,2.359-5.335,3.203-8.509,3.423c-2.25,0.155-4.521,0.098-6.78,0.028
	c-1.073-0.034-1.449,0.237-1.427,1.38c0.073,3.685-0.012,7.37,0.047,11.054c0.015,0.957-0.252,1.212-1.191,1.192
	c-3.056-0.06-6.113-0.067-9.17-0.006c-0.945,0.019-1.201-0.239-1.194-1.179c0.042-5.736,0.021-11.475,0.021-17.209
	C3.371,20.849,3.375,20.849,3.378,20.849z M14.888,14.085c0,1.089-0.001,2.178,0,3.265c0.001,0.398,0.044,0.793,0.573,0.777
	c1.909-0.056,3.853,0.296,5.699-0.5c1.442-0.621,2.338-2,2.295-3.569c-0.037-1.396-1.271-3.465-2.462-3.658
	c-1.801-0.293-3.639-0.446-5.479-0.321c-0.608,0.041-0.623,0.433-0.623,0.869C14.89,11.994,14.89,13.041,14.888,14.085z"/>
<path fill="#FFFFFF" d="M215.292,2.548c1.509,0,3.024,0.092,4.522-0.029c1.117-0.088,1.72,0.453,2.207,1.275
	c1.738,2.94,3.435,5.906,5.208,8.825c0.412,0.679,0.691,1.802,1.397,1.876c0.859,0.091,0.834-1.136,1.225-1.763
	c1.674-2.695,3.326-5.406,4.896-8.161c0.83-1.453,1.778-2.195,3.617-2.056c2.791,0.213,5.611,0.05,8.418,0.043
	c0.505-0.002,1.085-0.08,1.361,0.42c0.254,0.46-0.344,0.688-0.525,1.026c-1.097,2.033-2.586,3.812-3.869,5.724
	c-2.175,3.246-4.337,6.499-6.467,9.771c-0.876,1.349-1.912,2.58-2.721,3.984c-0.283,0.493-0.33,0.907-0.332,1.373
	c-0.016,4.397-0.041,8.799,0.014,13.199c0.011,0.938-0.203,1.198-1.166,1.181c-3.058-0.063-6.117-0.045-9.175,0.019
	c-0.984,0.021-1.175-0.355-1.167-1.252c0.041-4.514,0.018-9.029,0.028-13.545c0.002-0.609-0.197-1.091-0.547-1.603
	c-3.047-4.462-6.066-8.94-9.071-13.431c-1.273-1.903-2.463-3.862-3.748-5.76c-0.609-0.898-0.217-1.104,0.614-1.109
	c1.76-0.012,3.519-0.004,5.277-0.004C215.292,2.552,215.292,2.55,215.292,2.548z"/>
<path fill="#FFFFFF" d="M97.539,39.222c-3.381,0-6.727-0.043-10.068,0.023c-1.076,0.021-1.416-0.219-1.408-1.371
	c0.057-8.25,0.015-16.503,0.052-24.755c0.005-1.009-0.225-1.382-1.308-1.355c-2.973,0.072-5.948-0.012-8.922,0.035
	c-0.971,0.018-1.341-0.267-1.313-1.279c0.061-2.26,0.049-4.523-0.001-6.784c-0.02-0.856,0.22-1.192,1.125-1.19
	c10.765,0.021,21.529,0.018,32.295,0c0.72,0,1.059,0.149,1.041,0.973c-0.053,2.386-0.064,4.774-0.01,7.161
	c0.021,0.911-0.315,1.128-1.164,1.118c-3.1-0.039-6.2,0.012-9.299-0.021c-0.811-0.009-1.108,0.252-1.106,1.077
	c0.02,8.461,0.007,16.922,0.01,25.383C97.464,38.56,97.51,38.883,97.539,39.222z"/>
<path fill="#FFFFFF" d="M182.377,20.985c0-5.574,0.032-11.149-0.026-16.723c-0.013-1.129,0.325-1.414,1.416-1.387
	c2.807,0.069,5.615,0.063,8.422-0.019c1.097-0.032,1.326,0.366,1.321,1.373c-0.028,8.131-0.013,16.262-0.007,24.393
	c0.001,0.461,0.015,0.921,0.04,1.382c0.021,0.332,0.193,0.641,0.547,0.491c1.496-0.632,3.054-0.271,4.576-0.299
	c3.729-0.063,7.46,0.021,11.189-0.044c1.104-0.021,1.452,0.494,1.366,1.404c-0.203,2.132-0.108,4.266-0.076,6.396
	c0.016,0.943-0.237,1.296-1.273,1.291c-8.759-0.045-17.52-0.045-26.279-0.002c-1.033,0.005-1.232-0.334-1.227-1.283
	c0.04-5.658,0.021-11.314,0.021-16.975C182.383,20.985,182.38,20.985,182.377,20.985z"/>
<path fill="#FFFFFF" d="M162.801,21.03c0-5.652,0.029-11.306-0.022-16.959c-0.012-1.201,0.325-1.593,1.56-1.552
	c2.971,0.097,5.944,0.062,8.917,0.039c0.807-0.006,1.05,0.242,1.046,1.089c-0.035,10.511-0.027,21.021-0.029,31.532
	c0,1.034,0.01,2.071,0.015,3.106c0.004,0.522,0.039,0.75-0.771,0.813c-3.216,0.235-6.427,0-9.634,0.136
	c-0.909,0.037-1.102-0.25-1.095-1.117c0.04-5.695,0.021-11.39,0.021-17.086C162.804,21.03,162.802,21.03,162.801,21.03z"/>
<g>
	<path fill="#FFFFFF" d="M61.703,54.969h1.09v-3.854h-1.052v-0.777h5.646v0.777h-1.091v3.791c0.208-0.018,0.419-0.032,0.637-0.045
		c0.217-0.014,0.438-0.028,0.663-0.045l0.064,0.765c-1.039,0.088-2.034,0.137-2.985,0.149s-1.941,0.021-2.972,0.021L61.703,54.969
		L61.703,54.969z M67.232,56.594h0.909v0.987c0,0.268,0.022,0.498,0.07,0.688c0.048,0.189,0.125,0.359,0.234,0.512
		c0.108,0.152,0.248,0.289,0.421,0.41c0.172,0.121,0.385,0.246,0.636,0.375c0.337,0.174,0.731,0.359,1.182,0.558
		c0.449,0.2,0.87,0.377,1.259,0.533l-0.376,0.741c-0.424-0.174-0.85-0.362-1.272-0.565c-0.424-0.203-0.782-0.379-1.077-0.525
		c-0.864-0.434-1.376-0.811-1.53-1.128c-0.157,0.317-0.667,0.694-1.532,1.128c-0.294,0.146-0.653,0.322-1.077,0.525
		c-0.425,0.203-0.848,0.393-1.271,0.565l-0.39-0.741c0.19-0.078,0.396-0.162,0.616-0.253c0.22-0.09,0.438-0.184,0.649-0.28
		c0.211-0.093,0.419-0.189,0.623-0.285c0.202-0.096,0.391-0.185,0.563-0.271c0.234-0.121,0.438-0.242,0.61-0.362
		c0.174-0.121,0.315-0.257,0.428-0.41c0.113-0.15,0.195-0.323,0.247-0.519c0.051-0.193,0.078-0.427,0.078-0.693V56.594z
		 M63.676,54.969c0.589,0,1.168-0.013,1.739-0.038v-3.816h-1.739V54.969z M68.686,52.518v-2.856h0.895v6.282h-0.895v-2.622h-1.545
		v-0.804H68.686z M71.684,57.099h-0.896v-7.593h0.896V57.099z"/>
	<path fill="#FFFFFF" d="M86.079,54.816h-5.348v-4.829h5.348V54.816z M85.196,50.78h-3.583v3.243h3.583V50.78z M89.726,56.05v3.063
		h-6.36v1.519h6.671v0.779H82.47v-3.063h6.359V56.84h-6.425v-0.79H89.726z M89.726,55.347h-0.908v-5.841h0.908V55.347z"/>
	<path fill="#FFFFFF" d="M100.044,57.606h1.779c0.657,0,1.326-0.021,2.005-0.061s1.322-0.105,1.928-0.198l0.104,0.791
		c-0.692,0.11-1.4,0.188-2.123,0.228c-0.722,0.039-1.438,0.058-2.148,0.058h-2.453v-4.542h4.297v-2.608h-4.297v-0.807h5.205v4.22
		h-4.297V57.606z M108.014,61.371h-0.922V49.508h0.922V61.371z"/>
	<path fill="#FFFFFF" d="M117.229,58.955h1.143l-0.935,2.922h-0.752L117.229,58.955z"/>
	<path fill="#FFFFFF" d="M136.01,54.969h1.091v-3.854h-1.052v-0.777h5.646v0.777h-1.089v3.791c0.208-0.018,0.418-0.032,0.636-0.045
		c0.215-0.014,0.438-0.028,0.662-0.045l0.063,0.765c-1.038,0.088-2.033,0.137-2.984,0.149c-0.952,0.013-1.943,0.021-2.974,0.021
		L136.01,54.969L136.01,54.969z M141.541,56.594h0.909v0.987c0,0.268,0.023,0.498,0.071,0.688c0.048,0.189,0.125,0.359,0.233,0.512
		s0.248,0.289,0.422,0.41s0.386,0.246,0.637,0.375c0.338,0.174,0.73,0.359,1.182,0.558c0.45,0.2,0.87,0.377,1.258,0.533
		l-0.376,0.741c-0.424-0.174-0.849-0.362-1.271-0.565s-0.783-0.379-1.077-0.525c-0.866-0.434-1.376-0.811-1.531-1.128
		c-0.157,0.317-0.667,0.694-1.532,1.128c-0.294,0.146-0.653,0.322-1.078,0.525c-0.423,0.203-0.848,0.393-1.271,0.565l-0.389-0.741
		c0.189-0.078,0.396-0.162,0.616-0.253c0.222-0.09,0.438-0.184,0.649-0.28c0.213-0.093,0.42-0.189,0.623-0.285
		c0.204-0.096,0.392-0.185,0.565-0.271c0.232-0.121,0.437-0.242,0.608-0.362c0.173-0.121,0.316-0.257,0.429-0.41
		c0.112-0.15,0.194-0.323,0.246-0.519c0.053-0.193,0.078-0.427,0.078-0.693L141.541,56.594L141.541,56.594z M137.984,54.969
		c0.589,0,1.169-0.013,1.74-0.038v-3.816h-1.74V54.969z M142.994,52.518v-2.856h0.896v6.282h-0.896v-2.622h-1.544v-0.804H142.994z
		 M145.993,57.099h-0.896v-7.593h0.896V57.099z"/>
	<path fill="#FFFFFF" d="M154.585,57.905c0.666-0.381,1.237-0.724,1.713-1.026c0.478-0.302,0.877-0.585,1.2-0.851
		c0.326-0.263,0.587-0.513,0.786-0.746c0.199-0.232,0.352-0.468,0.454-0.707c0.104-0.238,0.173-0.49,0.208-0.759
		c0.034-0.27,0.052-0.563,0.052-0.882v-1.47h-4.283v-0.83h5.18v2.313c0,0.588-0.055,1.101-0.162,1.537
		c-0.108,0.438-0.331,0.86-0.668,1.271c-0.339,0.41-0.824,0.842-1.461,1.29c-0.637,0.452-1.481,0.983-2.538,1.598L154.585,57.905z
		 M163.398,54.036h1.974v0.817h-1.974v6.518h-0.922V49.508h0.922V54.036z"/>
	<path fill="#FFFFFF" d="M177.535,55.478v-1.637h0.907v1.637h4.998v0.777h-10.904v-0.777H177.535z M177.975,52.311
		c-0.063,0.138-0.233,0.298-0.521,0.479c-0.285,0.182-0.627,0.359-1.024,0.531c-0.338,0.146-0.729,0.31-1.176,0.487
		c-0.444,0.177-0.923,0.356-1.434,0.539l-0.377-0.716c0.545-0.197,1.052-0.386,1.519-0.563c0.469-0.177,0.861-0.34,1.183-0.486
		c0.52-0.234,0.878-0.471,1.077-0.709c0.198-0.236,0.298-0.523,0.298-0.861v-0.246h-3.557v-0.779h8.049v0.779h-3.57v0.246
		c0,0.338,0.095,0.625,0.286,0.861c0.189,0.238,0.55,0.475,1.077,0.709c0.381,0.171,0.815,0.352,1.304,0.531
		c0.49,0.181,0.954,0.351,1.396,0.506l-0.351,0.714c-0.485-0.174-0.959-0.351-1.422-0.531c-0.463-0.183-0.863-0.348-1.2-0.491
		c-0.406-0.174-0.749-0.351-1.025-0.526c-0.276-0.179-0.449-0.336-0.52-0.474H177.975z M173.926,57.67h7.943v3.791h-0.91v-2.998
		h-7.033V57.67L173.926,57.67z"/>
</g>
</svg>
