<?xml version="1.0" encoding="utf-8"?>
<!-- Generator: Adobe Illustrator 16.0.0, SVG Export Plug-In . SVG Version: 6.00 Build 0)  -->
<!DOCTYPE svg PUBLIC "-//W3C//DTD SVG 1.1//EN" "http://www.w3.org/Graphics/SVG/1.1/DTD/svg11.dtd">
<svg version="1.1" id="Layer_1" xmlns="http://www.w3.org/2000/svg" xmlns:xlink="http://www.w3.org/1999/xlink" x="0px" y="0px"
	 width="248.268px" height="63.982px" viewBox="0 0 248.268 63.982" enable-background="new 0 0 248.268 63.982"
	 xml:space="preserve">
<text transform="matrix(0.96 0 0 1 -33.2886 16.6814)" display="none" fill="#3A1F15" enable-background="new    " font-family="'Jalnan'" font-size="63.4006">PET</text>
<text transform="matrix(0.96 0 0 1 96.4727 16.6814)" display="none" fill="#FBB978" enable-background="new    " font-family="'Jalnan'" font-size="63.4006">FAMILY</text>
<text transform="matrix(0.96 0 0 1 -31.8359 54.1667)" display="none" fill="#939393" enable-background="new    " font-family="'Jalnan'" font-size="30">펫 패밀리</text>
<g>
	<g>
		<path fill-rule="evenodd" clip-rule="evenodd" fill="#FCD869" d="M122.104,13.659c-0.12,1.922-0.109,3.705-0.195,5.473
			c-0.122,2.483,0.111,4.982,0.129,7.475c0.029,3.833,0.004,7.666,0.005,11.498c0,0.75-0.246,1.121-1.111,1.104
			c-2.466-0.047-4.935-0.021-7.401,0.021c-0.692,0.012-0.942-0.181-0.941-0.91c0.021-11.585,0.022-23.17,0.003-34.755
			c-0.001-0.799,0.303-0.973,1.035-0.968c4.182,0.027,8.365,0.052,12.545-0.013c1.326-0.02,1.649,0.879,1.865,1.771
			c0.618,2.55,1.345,5.075,1.951,7.62c0.553,2.32,1.227,4.614,1.693,6.957c0.287,1.439,0.905,2.803,1.028,4.285
			c0.018,0.22,0.098,0.42,0.358,0.429c0.307,0.01,0.443-0.221,0.507-0.469c0.379-1.471,0.737-2.948,1.114-4.419
			c0.447-1.737,0.918-3.468,1.356-5.208c0.418-1.66,0.789-3.331,1.215-4.988c0.448-1.742,0.968-3.466,1.389-5.213
			c0.156-0.65,0.518-0.747,1.077-0.746c4.266,0.01,8.531,0.025,12.796-0.009c0.946-0.007,1.23,0.366,1.23,1.266
			c-0.016,11.417-0.014,22.834,0.014,34.253c0.003,0.909-0.356,1.13-1.188,1.117c-2.342-0.038-4.685-0.05-7.025,0.006
			c-0.963,0.023-1.291-0.254-1.287-1.265c0.031-7.318,0-14.637-0.011-21.956c0-0.209,0.022-0.42,0-0.627
			c-0.027-0.265,0.131-0.659-0.282-0.717c-0.35-0.049-0.472,0.264-0.539,0.568c-0.261,1.172-0.807,2.291-1.027,3.43
			c-0.329,1.701-0.762,3.389-1.01,5.117c-0.234,1.628-0.942,3.202-1.343,4.832c-0.59,2.403-1.221,4.796-1.84,7.194
			c-0.216,0.839-0.423,1.683-0.68,2.51c-0.185,0.595-0.526,0.938-1.27,0.918c-2.214-0.062-4.432-0.039-6.649-0.024
			c-0.58,0.004-0.82-0.125-0.969-0.791c-0.527-2.362-1.243-4.686-1.819-7.033c-0.578-2.359-1.248-4.701-1.741-7.09
			c-0.438-2.124-1.12-4.208-1.6-6.335c-0.262-1.157-0.575-2.303-0.839-3.459C122.58,14.215,122.521,13.956,122.104,13.659z"/>
		<path fill-rule="evenodd" clip-rule="evenodd" fill="#31ADE3" d="M39.013,20.896c0-5.647,0.022-11.294-0.021-16.94
			c-0.008-1.012,0.234-1.368,1.315-1.363c9.286,0.043,18.572,0.046,27.857,0.003c1.047-0.004,1.272,0.337,1.238,1.291
			c-0.065,1.796-0.07,3.599,0.007,5.394c0.043,1.01-0.196,1.354-1.295,1.341c-5.521-0.064-11.042-0.008-16.563-0.049
			c-0.924-0.007-1.274,0.234-1.213,1.181c0.07,1.083,0.067,2.177-0.002,3.261c-0.064,0.99,0.317,1.313,1.29,1.308
			c5.103-0.032,10.206,0.021,15.308-0.049c0.904-0.013,1.037,0.235,1.015,1.014c-0.049,1.756-0.057,3.514-0.009,5.27
			c0.022,0.817-0.144,1.155-1.074,1.193c-5.101,0.208-10.201,0.106-15.3,0.037c-0.969-0.014-1.26,0.207-1.226,1.145
			c0.056,1.545,0.109,3.102-0.01,4.64c-0.094,1.199,0.395,1.35,1.425,1.341c5.563-0.048,11.126-0.002,16.689-0.051
			c1.106-0.009,1.56,0.227,1.488,1.451c-0.114,1.96-0.051,3.931-0.014,5.896c0.013,0.72-0.144,1.034-0.963,1.032
			c-9.662-0.027-19.324-0.03-28.986,0c-0.937,0.003-0.965-0.434-0.963-1.153c0.021-5.73,0.012-11.46,0.012-17.19
			C39.016,20.896,39.014,20.896,39.013,20.896z"/>
		<path fill-rule="evenodd" clip-rule="evenodd" fill="#31ADE3" d="M2.161,20.879c0-5.643,0.021-11.286-0.021-16.929
			C2.133,3.047,2.308,2.705,3.288,2.713C9.6,2.762,15.912,2.709,22.224,2.778c3.125,0.034,6.079,0.789,8.263,3.217
			c2.838,3.157,3.233,6.94,2.381,10.911c-0.417,1.942-1.073,3.805-2.563,5.289c-2.364,2.354-5.325,3.196-8.493,3.415
			c-2.247,0.155-4.514,0.097-6.769,0.028c-1.071-0.032-1.447,0.237-1.424,1.379c0.073,3.677-0.011,7.357,0.047,11.034
			c0.015,0.955-0.251,1.209-1.189,1.19c-3.05-0.06-6.103-0.067-9.153-0.006c-0.945,0.021-1.2-0.238-1.193-1.177
			C2.171,32.333,2.15,26.606,2.15,20.879C2.154,20.879,2.158,20.879,2.161,20.879z M13.651,14.129c0,1.086,0,2.172,0,3.258
			c0,0.398,0.044,0.791,0.573,0.775c1.905-0.056,3.845,0.297,5.688-0.497c1.44-0.621,2.334-1.997,2.292-3.565
			c-0.038-1.393-1.269-3.458-2.458-3.651c-1.798-0.292-3.632-0.446-5.471-0.321c-0.607,0.041-0.622,0.433-0.623,0.869
			C13.653,12.04,13.653,13.085,13.651,14.129z"/>
		<path fill-rule="evenodd" clip-rule="evenodd" fill="#FCD869" d="M213.707,2.612c1.506,0,3.019,0.09,4.515-0.03
			c1.114-0.089,1.717,0.451,2.202,1.272c1.736,2.935,3.43,5.896,5.2,8.811c0.41,0.677,0.69,1.799,1.395,1.874
			c0.858,0.091,0.833-1.135,1.222-1.76c1.672-2.69,3.321-5.396,4.891-8.147c0.827-1.45,1.773-2.19,3.609-2.051
			c2.787,0.211,5.602,0.05,8.404,0.042c0.503-0.001,1.082-0.081,1.358,0.418c0.254,0.46-0.342,0.688-0.525,1.026
			c-1.095,2.03-2.58,3.804-3.862,5.714c-2.171,3.239-4.329,6.486-6.454,9.755c-0.874,1.345-1.909,2.575-2.717,3.976
			c-0.283,0.492-0.329,0.905-0.33,1.371c-0.017,4.392-0.042,8.785,0.013,13.175c0.011,0.938-0.203,1.199-1.164,1.18
			c-3.052-0.063-6.106-0.046-9.158,0.019c-0.984,0.021-1.173-0.355-1.166-1.248c0.042-4.508,0.017-9.016,0.028-13.523
			c0.002-0.609-0.197-1.09-0.545-1.6c-3.041-4.454-6.057-8.925-9.057-13.407c-1.271-1.9-2.458-3.857-3.74-5.749
			c-0.608-0.897-0.218-1.103,0.611-1.108c1.758-0.011,3.515-0.003,5.271-0.003C213.707,2.615,213.707,2.614,213.707,2.612z"/>
		<path fill-rule="evenodd" clip-rule="evenodd" fill="#31ADE3" d="M96.157,39.22c-3.375,0-6.714-0.042-10.051,0.024
			c-1.074,0.022-1.414-0.216-1.405-1.368c0.057-8.237,0.016-16.474,0.052-24.711c0.004-1.007-0.225-1.38-1.306-1.354
			c-2.967,0.071-5.938-0.012-8.905,0.036c-0.969,0.015-1.338-0.268-1.311-1.278c0.061-2.256,0.05-4.516,0-6.773
			c-0.019-0.854,0.22-1.191,1.123-1.188C85.1,2.63,95.846,2.627,106.592,2.61c0.719-0.001,1.057,0.149,1.039,0.969
			c-0.053,2.382-0.064,4.767-0.01,7.149c0.021,0.912-0.314,1.127-1.162,1.117c-3.094-0.038-6.189,0.011-9.282-0.021
			c-0.809-0.009-1.106,0.251-1.104,1.076c0.018,8.446,0.008,16.892,0.01,25.339C96.083,38.56,96.13,38.883,96.157,39.22z"/>
		<path fill-rule="evenodd" clip-rule="evenodd" fill="#FCD869" d="M180.848,21.016c0-5.564,0.032-11.13-0.025-16.694
			c-0.014-1.127,0.324-1.412,1.413-1.384c2.801,0.07,5.606,0.064,8.407-0.018c1.095-0.032,1.324,0.364,1.32,1.37
			c-0.03,8.117-0.013,16.234-0.008,24.35c0,0.46,0.013,0.921,0.04,1.379c0.02,0.332,0.194,0.638,0.547,0.489
			c1.493-0.631,3.048-0.271,4.567-0.297c3.723-0.063,7.446,0.02,11.17-0.046c1.103-0.019,1.45,0.495,1.363,1.403
			c-0.202,2.129-0.107,4.258-0.074,6.386c0.015,0.941-0.238,1.292-1.272,1.287c-8.744-0.045-17.488-0.044-26.233,0
			c-1.032,0.004-1.232-0.334-1.226-1.282c0.041-5.647,0.021-11.296,0.021-16.944C180.855,21.016,180.852,21.016,180.848,21.016z"/>
		<path fill-rule="evenodd" clip-rule="evenodd" fill="#FCD869" d="M161.306,21.061c0-5.643,0.031-11.287-0.022-16.93
			c-0.013-1.2,0.325-1.59,1.557-1.55c2.965,0.097,5.934,0.062,8.901,0.04c0.805-0.006,1.048,0.242,1.044,1.086
			c-0.035,10.493-0.028,20.985-0.03,31.478c0,1.033,0.009,2.067,0.016,3.101c0.003,0.521,0.039,0.749-0.771,0.811
			c-3.209,0.236-6.415,0.001-9.616,0.136c-0.908,0.038-1.1-0.248-1.094-1.115c0.041-5.686,0.021-11.371,0.021-17.056
			C161.309,21.061,161.308,21.061,161.306,21.061z"/>
		<path fill-rule="evenodd" clip-rule="evenodd" fill="#FFFFFF" d="M13.652,14.129c0.001-1.044,0.001-2.088,0.001-3.132
			c0-0.436,0.015-0.828,0.623-0.869c1.838-0.125,3.672,0.028,5.471,0.321c1.189,0.193,2.42,2.258,2.458,3.651
			c0.042,1.568-0.852,2.944-2.292,3.565c-1.843,0.794-3.783,0.441-5.688,0.497c-0.529,0.016-0.572-0.376-0.573-0.775
			C13.65,16.301,13.651,15.215,13.652,14.129z"/>
	</g>
	<g>
		<path fill="#58595B" d="M60.384,54.943h1.088v-3.849h-1.049v-0.777h5.637v0.777h-1.088v3.784c0.207-0.018,0.419-0.033,0.635-0.046
			s0.437-0.028,0.661-0.045l0.064,0.764c-1.037,0.087-2.03,0.137-2.98,0.149c-0.951,0.013-1.939,0.02-2.967,0.02V54.943z
			 M65.904,56.562h0.907v0.985c0,0.268,0.023,0.496,0.071,0.686c0.047,0.191,0.125,0.361,0.233,0.513
			c0.108,0.151,0.248,0.287,0.421,0.408c0.172,0.121,0.384,0.246,0.635,0.375c0.337,0.173,0.73,0.359,1.179,0.558
			s0.868,0.376,1.257,0.532l-0.376,0.738c-0.423-0.174-0.847-0.36-1.27-0.564c-0.423-0.202-0.782-0.378-1.076-0.524
			c-0.864-0.433-1.374-0.808-1.529-1.127c-0.155,0.319-0.665,0.694-1.529,1.127c-0.294,0.146-0.653,0.322-1.076,0.524
			c-0.423,0.204-0.847,0.391-1.27,0.564l-0.389-0.738c0.19-0.079,0.395-0.163,0.615-0.254c0.22-0.09,0.436-0.183,0.648-0.278
			c0.211-0.095,0.419-0.189,0.622-0.285c0.203-0.095,0.391-0.186,0.563-0.272c0.233-0.12,0.436-0.241,0.609-0.362
			s0.315-0.257,0.428-0.408s0.194-0.324,0.246-0.518c0.052-0.194,0.078-0.426,0.078-0.693V56.562z M62.354,54.943
			c0.587,0,1.166-0.013,1.736-0.039v-3.81h-1.736V54.943z M67.355,52.494v-2.851h0.894v6.271h-0.894v-2.617h-1.542v-0.804H67.355z
			 M70.348,57.068h-0.894v-7.58h0.894V57.068z"/>
		<path fill="#58595B" d="M84.718,54.788h-5.338v-4.82h5.338V54.788z M83.836,50.759h-3.576v3.239h3.576V50.759z M88.359,56.018
			v3.058h-6.35v1.516h6.66v0.778h-7.554v-3.058h6.349v-1.503h-6.414v-0.791H88.359z M88.359,55.319h-0.907v-5.831h0.907V55.319z"/>
		<path fill="#58595B" d="M98.66,57.573h1.775c0.657,0,1.324-0.02,2.002-0.059c0.678-0.038,1.319-0.105,1.924-0.2l0.104,0.79
			c-0.691,0.112-1.397,0.188-2.119,0.228c-0.721,0.038-1.436,0.058-2.145,0.058h-2.449v-4.534h4.29V51.25h-4.29v-0.803h5.196v4.211
			H98.66V57.573z M106.615,61.331h-0.92V49.488h0.92V61.331z"/>
		<path fill="#58595B" d="M115.815,58.921h1.14l-0.933,2.915h-0.751L115.815,58.921z"/>
		<path fill="#58595B" d="M134.563,54.943h1.088v-3.849h-1.049v-0.777h5.636v0.777h-1.088v3.784
			c0.207-0.018,0.418-0.033,0.635-0.046c0.215-0.013,0.436-0.028,0.661-0.045l0.065,0.764c-1.037,0.087-2.03,0.137-2.98,0.149
			c-0.951,0.013-1.939,0.02-2.967,0.02V54.943z M140.083,56.562h0.907v0.985c0,0.268,0.023,0.496,0.071,0.686
			c0.048,0.191,0.125,0.361,0.234,0.513c0.108,0.151,0.247,0.287,0.421,0.408c0.172,0.121,0.385,0.246,0.634,0.375
			c0.337,0.173,0.73,0.359,1.18,0.558s0.868,0.376,1.256,0.532l-0.375,0.738c-0.423-0.174-0.847-0.36-1.27-0.564
			c-0.423-0.202-0.782-0.378-1.076-0.524c-0.863-0.433-1.373-0.808-1.529-1.127c-0.155,0.319-0.665,0.694-1.528,1.127
			c-0.294,0.146-0.652,0.322-1.076,0.524c-0.424,0.204-0.847,0.391-1.27,0.564l-0.389-0.738c0.19-0.079,0.395-0.163,0.615-0.254
			c0.221-0.09,0.437-0.183,0.648-0.278c0.212-0.095,0.419-0.189,0.622-0.285c0.204-0.095,0.391-0.186,0.564-0.272
			c0.233-0.12,0.437-0.241,0.608-0.362c0.173-0.121,0.315-0.257,0.428-0.408c0.113-0.151,0.195-0.324,0.247-0.518
			c0.052-0.194,0.078-0.426,0.078-0.693V56.562z M136.534,54.943c0.587,0,1.166-0.013,1.736-0.039v-3.81h-1.736V54.943z
			 M141.535,52.494v-2.851h0.894v6.271h-0.894v-2.617h-1.542v-0.804H141.535z M144.528,57.068h-0.894v-7.58h0.894V57.068z"/>
		<path fill="#58595B" d="M153.105,57.871c0.665-0.38,1.235-0.721,1.71-1.023c0.475-0.302,0.875-0.585,1.198-0.849
			c0.324-0.264,0.585-0.512,0.784-0.745c0.198-0.232,0.35-0.469,0.453-0.706s0.173-0.49,0.207-0.758
			c0.034-0.269,0.053-0.562,0.053-0.882v-1.464h-4.276v-0.828h5.169v2.306c0,0.587-0.054,1.099-0.162,1.535s-0.33,0.859-0.667,1.271
			c-0.337,0.41-0.823,0.84-1.458,1.289c-0.635,0.448-1.479,0.98-2.533,1.594L153.105,57.871z M161.903,54.01h1.97v0.815h-1.97v6.505
			h-0.92V49.488h0.92V54.01z"/>
		<path fill="#58595B" d="M176.014,55.448v-1.633h0.906v1.633h4.988v0.778h-10.884v-0.778H176.014z M176.455,52.287
			c-0.061,0.138-0.233,0.298-0.519,0.479c-0.284,0.183-0.626,0.359-1.023,0.532c-0.337,0.146-0.729,0.309-1.173,0.486
			c-0.444,0.177-0.922,0.356-1.432,0.537l-0.376-0.713c0.544-0.198,1.05-0.387,1.516-0.563c0.467-0.177,0.86-0.339,1.18-0.485
			c0.519-0.234,0.877-0.47,1.075-0.706c0.198-0.238,0.298-0.525,0.298-0.862v-0.246h-3.55v-0.777h8.033v0.777h-3.563v0.246
			c0,0.337,0.095,0.624,0.285,0.862c0.19,0.236,0.549,0.472,1.076,0.706c0.38,0.172,0.814,0.349,1.302,0.53
			c0.488,0.183,0.952,0.351,1.394,0.506l-0.351,0.713c-0.483-0.173-0.956-0.351-1.419-0.531c-0.463-0.182-0.861-0.346-1.198-0.492
			c-0.406-0.173-0.747-0.348-1.023-0.525c-0.277-0.177-0.449-0.335-0.52-0.473H176.455z M172.413,57.637h7.93v3.784h-0.908v-2.993
			h-7.021V57.637z"/>
	</g>
</g>
</svg>
