<?xml version="1.0" encoding="utf-8"?>
<!-- Generator: Adobe Illustrator 16.0.0, SVG Export Plug-In . SVG Version: 6.00 Build 0)  -->
<!DOCTYPE svg PUBLIC "-//W3C//DTD SVG 1.1//EN" "http://www.w3.org/Graphics/SVG/1.1/DTD/svg11.dtd">
<svg version="1.1" id="Layer_1" xmlns="http://www.w3.org/2000/svg" xmlns:xlink="http://www.w3.org/1999/xlink" x="0px" y="0px"
	 width="318.572px" height="89px" viewBox="0 0 318.572 89" enable-background="new 0 0 318.572 89" xml:space="preserve">
<g>
	<g>
		<g>
			<g>
				<g>
					<path fill="#FBB978" stroke="#3A1F15" stroke-linecap="round" stroke-linejoin="round" stroke-miterlimit="10" d="
						M9.542,47.307c0,20.773,16.841,32.129,37.612,32.129c20.775,0,37.613-11.354,37.613-32.129S67.93,13.349,47.156,13.349
						C26.382,13.349,9.542,26.532,9.542,47.307z"/>
				</g>
				<path fill="#FFFFFF" d="M25.801,61.154c0-7.584,10.194-13.733,20.654-13.733c10.463,0,20.657,6.149,20.657,13.733
					c0,7.585-2.716,13.734-20.657,13.734C28.517,74.889,25.801,68.739,25.801,61.154z"/>
				<circle fill="#3A1F15" cx="64.626" cy="45.023" r="4.567"/>
				<circle fill="#3A1F15" cx="29.684" cy="45.023" r="4.567"/>
			</g>
		</g>
		
			<line fill="none" stroke="#3A1F15" stroke-linecap="round" stroke-linejoin="round" stroke-miterlimit="10" x1="46.455" y1="54.486" x2="46.455" y2="63.484"/>
		<path fill="#3A1F15" d="M46.455,50.221c-7.288,0-8.801,2.662-7.202,4.766c1.597,2.103,3.84,3.771,7.202,3.771
			c3.367,0,5.609-1.67,7.206-3.771C55.255,52.883,53.744,50.221,46.455,50.221z"/>
		<ellipse fill="#FDC361" cx="29.992" cy="18.922" rx="2.71" ry="2.095"/>
		<ellipse fill="#FDC361" cx="64.304" cy="18.922" rx="2.715" ry="2.095"/>
		<path fill="#FBB978" stroke="#3A1F15" stroke-linecap="round" stroke-linejoin="round" stroke-miterlimit="10" d="M26.067,24.547
			c0.078,9.26-7.989,19.664-16.529,16.205c-8.546-3.461-1.359-19.378-1.359-19.378S18.766,1.329,32.17,16.719"/>
		<path fill="#FBB978" stroke="#3A1F15" stroke-linecap="round" stroke-linejoin="round" stroke-miterlimit="10" d="M68.228,24.547
			c-0.078,9.26,7.989,19.664,16.532,16.205c8.541-3.461,1.355-19.378,1.355-19.378S75.532,1.329,62.122,16.719"/>
	</g>
	<path fill="none" stroke="#3A1F15" stroke-linecap="round" stroke-linejoin="round" stroke-miterlimit="10" d="M38.675,60.544
		c0,0-0.996,1.595,1.331,3.924c2.333,2.331,6.447,0.981,6.447-1.964"/>
	<path fill="none" stroke="#3A1F15" stroke-linecap="round" stroke-linejoin="round" stroke-miterlimit="10" d="M54.235,60.544
		c0,0,1.002,1.595-1.33,3.924c-2.33,2.331-6.45,0.981-6.45-1.964"/>
</g>
<g>
	<g>
		<path fill="#3A1F15" d="M109.332,39.208v9.24h-7.677V23.332c0-4.464,1.343-6.134,5.813-6.134h6.487
			c6.447,0,11.182,3.339,11.182,10.675v0.659c0,7.336-4.734,10.676-11.182,10.676H109.332z M109.332,32.452h4.25
			c2.499,0,3.913-1.939,3.913-4.114v-0.272c0-2.173-1.415-4.114-3.913-4.114h-3.168c-0.858,0-1.082,0.194-1.082,1.125V32.452z"/>
		<path fill="#3A1F15" d="M134.04,29.269h10.174c2.166,0,3.022,1.864,3.022,3.417c0,1.552-0.821,3.299-3.022,3.299H134.04v4.541
			c0,0.932,0.225,1.125,1.082,1.125h9.803c2.199,0,3.018,1.747,3.018,3.34c0,1.592-0.855,3.456-3.018,3.456h-12.71
			c-4.471,0-5.813-1.67-5.813-6.134V23.33c0-4.464,1.342-6.134,5.813-6.134h12.336c2.163,0,3.021,1.864,3.021,3.457
			c0,1.591-0.82,3.338-3.021,3.338h-9.429c-0.857,0-1.082,0.192-1.082,1.124V29.269L134.04,29.269z"/>
		<path fill="#3A1F15" d="M155.917,48.448V24.067h-5.701c-2.163,0-3.019-1.863-3.019-3.454c0-1.592,0.82-3.339,3.019-3.339h19.156
			c2.199,0,3.018,1.748,3.018,3.339c0,1.591-0.855,3.454-3.018,3.454h-5.702v24.381H155.917z"/>
		<path fill="#FBB978" d="M181.106,48.448V23.332c0-4.464,1.344-6.134,5.813-6.134h12.409c2.167,0,3.025,1.863,3.025,3.456
			c0,1.591-0.822,3.338-3.025,3.338h-9.461c-0.858,0-1.084,0.194-1.084,1.125v4.891h9.578c2.164,0,3.021,1.864,3.021,3.455
			c0,1.593-0.822,3.339-3.021,3.339h-9.578v11.647L181.106,48.448L181.106,48.448z"/>
		<path fill="#FBB978" d="M208.949,20.265c0.745-2.174,2.791-3.221,4.805-3.221c1.901,0,3.877,1.125,4.585,3.221l9.727,28.184
			h-8.196l-1.455-4.814h-9.577l-1.417,4.814h-8.049L208.949,20.265z M210.772,37.072h5.703l-2.832-9.666L210.772,37.072z"/>
		<path fill="#FBB978" d="M240.024,45.146l-3.76-14.168l-1.716,17.47h-7.046L230.635,21c0.226-2.368,2.238-3.727,3.916-3.881
			c1.786-0.155,4.285,0.622,4.956,3.183l4.51,17.78l4.512-17.78c0.67-2.563,3.166-3.338,4.955-3.183
			c1.676,0.155,3.691,1.513,3.914,3.881l3.131,27.447h-7.045l-1.676-17.586l-3.802,14.286c-0.369,1.318-2.565,1.904-3.987,1.904
			C242.601,47.051,240.401,46.467,240.024,45.146z"/>
		<path fill="#FBB978" d="M261.867,20.925c0-2.679,1.786-3.881,3.876-3.881c2.086,0,3.873,1.203,3.873,3.881v27.523h-7.75
			L261.867,20.925L261.867,20.925z"/>
		<path fill="#FBB978" d="M277.481,48.448c-4.472,0-5.814-1.671-5.814-6.135V21c0-2.601,1.864-3.958,3.872-3.958
			c2.017,0,3.878,1.358,3.878,3.958v19.526c0,0.932,0.225,1.125,1.081,1.125h8.274c2.196,0,3.018,1.747,3.018,3.34
			c0,1.592-0.859,3.456-3.018,3.456L277.481,48.448L277.481,48.448z"/>
		<path fill="#FBB978" d="M304.611,36.996v11.452h-7.604V36.762l-8.46-13.858c-1.491-2.406-0.185-4.774,1.493-5.513
			c2.346-1.009,4.508,0.117,5.813,2.33l5.22,9.004l5.029-9.004c1.078-1.903,2.756-3.261,5.257-2.446
			c1.823,0.582,3.273,2.99,1.713,5.629L304.611,36.996z"/>
	</g>
	<g>
		<path fill="#939393" d="M102.384,65.326c-0.829,0-1.25-0.662-1.25-1.325c0-0.644,0.317-1.246,1.164-1.285v-2.425
			c0-0.992,0.562-1.359,1.392-1.359c0.829,0,1.412,0.367,1.412,1.359v2.425h0.722v-2.425c0-0.992,0.565-1.359,1.392-1.359
			c0.829,0,1.411,0.367,1.411,1.359v2.425h0.035c0.899,0,1.25,0.625,1.25,1.285c0,0.663-0.421,1.325-1.25,1.325H102.384z
			 M102.56,58.473c-0.829,0-1.254-0.642-1.254-1.342c0-0.697,0.353-1.357,1.254-1.357h5.731c0.898,0,1.25,0.66,1.25,1.357
			c0,0.7-0.424,1.342-1.25,1.342H102.56z M111.656,67.602c2.735-0.107,5.802,1.252,6.294,4.961h-3.614
			c-0.424-1.58-2.063-2.498-3.967-2.258c-1.728,1.706-4.832,2.662-6.981,2.424c-0.849-0.092-1.501-0.754-1.446-1.689
			c0.051-0.9,0.705-1.396,1.513-1.359c1.588,0.073,3.898-0.587,4.602-2.261c0.495-1.157,1.094-1.541,2.012-1.487
			c0.915,0.055,1.584,0.516,1.584,1.616v0.056h0.003V67.602z M110.618,61.982h-0.387c-0.865,0-1.254-0.681-1.254-1.453
			c0-0.771,0.32-1.45,1.254-1.45h0.387v-2.204c0-1.027,0.706-1.563,1.515-1.563c0.792,0,1.497,0.552,1.497,1.563v8.671h-3.012
			V61.982z M114.337,56.875c0-1.027,0.722-1.563,1.535-1.563c0.792,0,1.535,0.552,1.535,1.563v9.313h-3.069L114.337,56.875
			L114.337,56.875z"/>
		<path fill="#939393" d="M123.246,71.828c-0.865,0-1.305-0.735-1.305-1.451c0-0.661,0.299-1.285,1.093-1.378v-7.954
			c0-0.992,0.546-1.468,1.463-1.468c0.915,0,1.462,0.493,1.462,1.468v7.938h0.849v-7.938c0-0.992,0.547-1.468,1.465-1.468
			c0.913,0,1.459,0.493,1.459,1.468v7.954c0.777,0.093,1.095,0.716,1.095,1.378c0,0.716-0.442,1.451-1.306,1.451H123.246z
			 M123.457,58.896c-0.862,0-1.32-0.735-1.32-1.451c0-0.717,0.386-1.488,1.32-1.488h5.854c0.935,0,1.322,0.771,1.322,1.488
			c0,0.716-0.458,1.451-1.322,1.451H123.457z M135.091,64.975h-0.848v7.588h-3.048V56.875c0-1.027,0.704-1.563,1.514-1.563
			c0.795,0,1.534,0.552,1.534,1.563v5.088h0.848v-5.088c0-1.027,0.74-1.563,1.554-1.563c0.793,0,1.567,0.552,1.567,1.563v15.688
			h-3.121V64.975z"/>
		<path fill="#939393" d="M141.691,63.855c-2.133,0-2.522-0.662-2.522-2.793v-2.518c0-2.131,0.39-2.792,2.522-2.792h4.902
			c2.13,0,2.519,0.661,2.519,2.792v5.309L141.691,63.855L141.691,63.855z M142.238,72.563c-1.605,0-2.508-1.177-2.508-2.498v-0.219
			c0-1.322,0.902-2.168,2.508-2.168h8.866v-0.479c0-0.221-0.053-0.295-0.283-0.295h-9.926c-0.687,0-0.97-0.531-0.97-1.084
			c0-0.514,0.302-1.064,0.97-1.064h11.636c1.57,0,2.152,0.479,2.152,1.928v2.938h-10.842c-0.267,0-0.389,0.166-0.389,0.353v0.053
			c0,0.185,0.122,0.351,0.389,0.351h10.297c0.704,0,1.006,0.569,1.006,1.119c0,0.515-0.283,1.065-1.006,1.065H142.238
			L142.238,72.563z M142.921,61.21h2.86v-2.353c0-0.349-0.089-0.459-0.441-0.459h-2.419c-0.352,0-0.42,0.11-0.42,0.459v1.873
			C142.5,61.119,142.57,61.21,142.921,61.21z M151.122,57.131c0-1.191,0.847-1.816,1.78-1.816c0.919,0,1.782,0.644,1.782,1.816
			v7.036h-3.563L151.122,57.131L151.122,57.131z"/>
		<path fill="#939393" d="M159.431,67.986c0,0.644,0.193,0.791,0.811,0.791h5.198c1.076,0,1.5,0.771,1.5,1.508
			c0,0.753-0.441,1.507-1.5,1.507h-6.502c-2.207,0-3.05-0.828-3.05-3.123v-3.343c0-2.299,0.845-3.09,3.05-3.09h3.153v-2.659
			c0-0.24-0.07-0.517-0.475-0.517h-4.055c-1.059,0-1.501-0.771-1.501-1.522c0-0.737,0.424-1.545,1.501-1.545h4.99
			c2.433,0,3.081,0.717,3.081,2.812v6.43h-5.392c-0.617,0-0.811,0.146-0.811,0.791v1.961H159.431z M167.912,72.563V57.131
			c0-1.191,0.825-1.816,1.761-1.816s1.764,0.625,1.764,1.816v15.432H167.912z"/>
	</g>
</g>
<text transform="matrix(0.96 0 0 1 -33.2871 16.6816)" display="none" fill="#3A1F15" enable-background="new    " font-family="'JalnanOTF-KSCpc-EUC-H'" font-size="63.4006" letter-spacing="-1.042">PET</text>
<text transform="matrix(0.96 0 0 1 82.4756 16.6816)" font-family="'JalnanOTF-KSCpc-EUC-H'" font-size="63.4006" letter-spacing="-1.042"> </text>
<text transform="matrix(0.96 0 0 1 96.4741 16.6816)" display="none" fill="#FBB978" enable-background="new    " font-family="'JalnanOTF-KSCpc-EUC-H'" font-size="63.4006" letter-spacing="-1.042">FAMILY</text>
<text transform="matrix(0.96 0 0 1 -31.8345 54.167)" display="none" fill="#939393" enable-background="new    " font-family="'JalnanOTF-KSCpc-EUC-H'" font-size="30">펫 패밀리</text>
</svg>
