<?xml version="1.0" encoding="utf-8"?>
<!-- Generator: Adobe Illustrator 16.0.0, SVG Export Plug-In . SVG Version: 6.00 Build 0)  -->
<!DOCTYPE svg PUBLIC "-//W3C//DTD SVG 1.1//EN" "http://www.w3.org/Graphics/SVG/1.1/DTD/svg11.dtd">
<svg version="1.1" id="Layer_1" xmlns="http://www.w3.org/2000/svg" xmlns:xlink="http://www.w3.org/1999/xlink" x="0px" y="0px"
	 width="54px" height="56.5px" viewBox="0 0 54 56.5" enable-background="new 0 0 54 56.5" xml:space="preserve">
<g>
	<path fill="#FAE300" d="M44.115,51.335h-33.73c-2.883,0-5.221-2.337-5.221-5.221v-33.73c0-2.883,2.338-5.22,5.221-5.22h33.73
		c2.883,0,5.22,2.337,5.22,5.22v33.73C49.335,48.998,46.998,51.335,44.115,51.335z"/>
	<path fill="#391B1B" d="M27.129,15.829c-8.354,0-15.128,5.354-15.128,11.958c0,4.299,2.869,8.068,7.176,10.176
		c-0.315,1.182-1.145,4.28-1.31,4.942c-0.207,0.823,0.3,0.812,0.633,0.59c0.26-0.173,4.145-2.815,5.82-3.955
		c0.911,0.135,1.85,0.206,2.809,0.206c8.354,0,15.128-5.354,15.128-11.96C42.257,21.182,35.483,15.829,27.129,15.829"/>
	<g>
		<path fill="#FAE300" d="M21.041,24.265h-4.424c-0.414,0-0.753,0.337-0.753,0.753c0,0.415,0.339,0.751,0.753,0.751h1.438v5.3
			c0,0.192,0.079,0.381,0.217,0.519c0.135,0.136,0.325,0.215,0.519,0.215h0.16c0.193,0,0.382-0.079,0.517-0.215
			c0.138-0.137,0.216-0.325,0.216-0.519v-5.3h1.358c0.418,0,0.754-0.337,0.754-0.751C21.795,24.603,21.459,24.265,21.041,24.265z"/>
		<path fill="#FAE300" d="M31.672,30.388h-2.055v-5.412c0-0.452-0.367-0.817-0.817-0.817s-0.816,0.365-0.816,0.817v5.834
			c0,0.044,0.005,0.088,0.013,0.13c-0.008,0.043-0.013,0.086-0.013,0.131c0,0.378,0.306,0.683,0.682,0.683h3.007
			c0.379,0,0.685-0.305,0.685-0.683C32.356,30.695,32.051,30.388,31.672,30.388z"/>
		<path fill="#FAE300" d="M38.246,30.636l-2.293-3.01l2.071-2.072c0.282-0.28,0.282-0.735,0-1.015c-0.28-0.281-0.735-0.281-1.015,0
			l-2.564,2.563v-2.125c0-0.452-0.366-0.817-0.816-0.817c-0.451,0-0.817,0.365-0.817,0.817v6.014c0,0.451,0.366,0.815,0.817,0.815
			c0.45,0,0.816-0.364,0.816-0.815v-1.856l0.465-0.465l2.17,2.845c0.239,0.323,0.7,0.389,1.021,0.145
			C38.424,31.417,38.49,30.959,38.246,30.636z"/>
		<path fill="#FAE300" d="M27.373,30.833l-2.205-6.032c0,0-0.006-0.004-0.008-0.006c-0.14-0.368-0.547-0.635-1.033-0.635
			c-0.536,0-0.981,0.328-1.07,0.759c-0.016,0.032-0.031,0.064-0.044,0.1l-2.167,5.814c-0.135,0.381,0.066,0.798,0.447,0.932
			c0.379,0.135,0.799-0.066,0.932-0.448l0.376-1.071h3.018l0.374,1.071c0.135,0.382,0.552,0.583,0.934,0.448
			C27.305,31.631,27.506,31.214,27.373,30.833z M23.079,28.88l1.015-2.894c0.011,0,0.021,0.004,0.031,0.004l1.015,2.89H23.079z"/>
	</g>
</g>
</svg>
