<?xml version="1.0" encoding="utf-8"?>
<!-- Generator: Adobe Illustrator 16.0.0, SVG Export Plug-In . SVG Version: 6.00 Build 0)  -->
<!DOCTYPE svg PUBLIC "-//W3C//DTD SVG 1.1//EN" "http://www.w3.org/Graphics/SVG/1.1/DTD/svg11.dtd">
<svg version="1.1" id="Layer_1" xmlns="http://www.w3.org/2000/svg" xmlns:xlink="http://www.w3.org/1999/xlink" x="0px" y="0px"
	 width="54px" height="56.5px" viewBox="0 0 54 56.5" enable-background="new 0 0 54 56.5" xml:space="preserve">
<g>
	<path fill="#2D5872" d="M44.115,51.335h-33.73c-2.883,0-5.221-2.337-5.221-5.221v-33.73c0-2.883,2.338-5.22,5.221-5.22h33.73
		c2.883,0,5.22,2.337,5.22,5.22v33.73C49.335,48.998,46.998,51.335,44.115,51.335z"/>
	<g>
		<path fill="#12425C" d="M49.335,46.115v-3.933L35.234,28.081L19.445,40.597l10.738,10.738h13.932
			C46.998,51.335,49.335,48.998,49.335,46.115z"/>
	</g>
	<g>
		<path fill="#FFFFFF" d="M23.945,41.005c0,0.256-0.289,0.465-0.642,0.465h-0.253c-0.354,0-0.642-0.209-0.642-0.465
			c0-0.255,0.288-0.465,0.642-0.465h0.253C23.656,40.54,23.945,40.75,23.945,41.005z"/>
	</g>
	<g>
		<path fill="#FFFFFF" d="M34.345,41.005c0,0.256-0.288,0.465-0.642,0.465h-0.254c-0.354,0-0.642-0.209-0.642-0.465
			c0-0.255,0.288-0.465,0.642-0.465h0.254C34.057,40.54,34.345,40.75,34.345,41.005z"/>
	</g>
	<path fill="#FFFFFF" d="M35.947,32.01c-0.352-1.115-0.53-2.277-0.53-3.446l0,0c0-0.41-0.319-0.743-0.713-0.743h-1.068
		c-0.394,0-0.713,0.333-0.713,0.743l0,0c0,0.541-0.421,1.549-0.941,1.549h-7.257c-0.52,0-0.941-1.008-0.941-1.549l0,0
		c0-0.41-0.319-0.743-0.713-0.743h-1.067c-0.395,0-0.714,0.333-0.714,0.743v0.206c0,1.169-0.179,2.332-0.53,3.446l-1.302,4.134
		c-0.309,0.979-0.466,2.004-0.466,3.036l0,0c0,0.846,0.658,1.532,1.471,1.532h15.847c0.813,0,1.472-0.686,1.472-1.532l0,0
		c0-1.032-0.157-2.057-0.466-3.036L35.947,32.01z"/>
	<path fill="#2BD3EF" d="M16.646,30.402l3.617-2.312c0.302-0.193,0.457-0.544,0.405-0.918c-0.042-0.305-0.216-0.574-0.478-0.738
		l-0.865-0.543c-0.328-0.206-0.364-0.73-0.068-0.919l7.17-4.582c0.136-0.087,0.305-0.095,0.463-0.022
		c0.186,0.086,0.313,0.259,0.343,0.471l0.131,1.024c0.049,0.353,0.271,0.652,0.592,0.8c0.291,0.135,0.62,0.116,0.879-0.05
		l3.538-2.261c0.303-0.192,0.457-0.544,0.405-0.918c-0.04-0.291-0.203-0.553-0.446-0.718l-1.022-0.694
		c-1.831-1.244-4.146-1.324-5.896-0.206l-8.147,5.206c-1.726,1.103-2.611,3.128-2.313,5.286c0.008,0.055,0.016,0.109,0.024,0.164
		l0.202,1.208c0.058,0.346,0.281,0.637,0.6,0.778C16.071,30.588,16.388,30.567,16.646,30.402z"/>
	<circle fill="#2BD3EF" cx="28.386" cy="35.537" r="4.178"/>
	<circle fill="#FFFFFF" cx="28.386" cy="35.537" r="2.785"/>
</g>
</svg>
